<?xml version="1.0" standalone="no"?>
<!DOCTYPE svg PUBLIC "-//W3C//DTD SVG 20010904//EN"
 "http://www.w3.org/TR/2001/REC-SVG-20010904/DTD/svg10.dtd">
<svg version="1.0" xmlns="http://www.w3.org/2000/svg"
 width="56.000000pt" height="50.000000pt" viewBox="0 0 56.000000 50.000000"
 preserveAspectRatio="xMidYMid meet">
<metadata>
Created by potrace 1.13, written by Peter Selinger 2001-2015
</metadata>
<g transform="translate(0.000000,37.750000) scale(0.075000,-0.075000)"
fill="#000000" stroke="none">
<path d="M192 483 c-61 -21 -128 -92 -147 -155 -19 -65 -19 -104 0 -159 57
-160 246 -219 383 -119 122 88 135 270 26 376 -72 69 -168 90 -262 57z m162
-15 c54 -16 128 -90 144 -144 27 -91 8 -169 -58 -234 -93 -94 -227 -94 -320 0
-71 70 -89 163 -49 250 27 60 54 88 114 116 56 27 107 30 169 12z"/>
<path d="M144 367 c-3 -8 -4 -52 -2 -98 l3 -84 48 -3 c33 -2 47 -7 47 -18 0
-7 -4 -14 -10 -14 -5 0 -10 -4 -10 -10 0 -6 28 -10 65 -10 37 0 65 4 65 10 0
6 -4 10 -10 10 -5 0 -10 7 -10 14 0 11 14 16 48 18 l47 3 0 95 0 95 -138 3
c-109 2 -139 0 -143 -11z m266 -87 l0 -80 -125 0 -125 0 0 80 0 80 125 0 125
0 0 -80z"/>
<path d="M180 280 l0 -60 105 0 105 0 0 60 0 60 -105 0 -105 0 0 -60z"/>
</g>
</svg>
