<?xml version="1.0" standalone="no"?>
<!DOCTYPE svg PUBLIC "-//W3C//DTD SVG 20010904//EN"
 "http://www.w3.org/TR/2001/REC-SVG-20010904/DTD/svg10.dtd">
<svg version="1.0" xmlns="http://www.w3.org/2000/svg"
 width="56.000000pt" height="55.000000pt" viewBox="0 0 56.000000 55.000000"
 preserveAspectRatio="xMidYMid meet">
<metadata>
Created by potrace 1.10, written by Peter Selinger 2001-2011
</metadata>
<g transform="translate(0.000000,55.000000) scale(0.100000,-0.100000)"
fill="#000000" stroke="none">
<path d="M212 513 c-157 -47 -230 -233 -145 -371 74 -122 233 -157 350 -79 92
62 133 175 102 285 -20 71 -96 143 -175 165 -70 20 -64 20 -132 0z m174 -41
c160 -82 163 -310 5 -395 -58 -32 -152 -37 -204 -11 -91 46 -146 146 -133 239
8 50 54 127 90 151 74 48 168 54 242 16z"/>
<path d="M213 380 c-58 -35 -79 -110 -48 -170 42 -81 178 -80 221 1 58 113
-66 235 -173 169z m136 -26 c78 -65 27 -194 -76 -194 -73 0 -126 75 -103 145
25 75 118 101 179 49z"/>
</g>
</svg>
